<svg width="537" height="1862" viewBox="0 0 537 1862" fill="none" xmlns="http://www.w3.org/2000/svg">
<path d="M266.058 13C-12.4418 13.0013 -11.5 319 266.056 319" stroke="url(#paint0_linear_842_34)" stroke-width="25" stroke-linecap="round"/>
<path d="M270 319C548.5 319.001 547.559 625 270.002 625" stroke="url(#paint1_linear_842_34)" stroke-width="25" stroke-linecap="round"/>
<path d="M272.522 625C-5.97795 625.001 -5.03613 931 272.52 931" stroke="url(#paint2_linear_842_34)" stroke-width="25" stroke-linecap="round"/>
<path d="M276 931C554.5 931.001 553.559 1237 276.002 1237" stroke="url(#paint3_linear_842_34)" stroke-width="25" stroke-linecap="round"/>
<path d="M272.522 1237C-5.97795 1237 -5.03613 1543 272.52 1543" stroke="url(#paint4_linear_842_34)" stroke-width="25" stroke-linecap="round"/>
<path d="M274 1543C552.5 1543 551.559 1849 274.002 1849" stroke="url(#paint5_linear_842_34)" stroke-width="25" stroke-linecap="round"/>
<circle cx="57.5" cy="166.5" r="52.5" fill="url(#paint6_linear_842_34)" stroke="white" stroke-width="10"/>
<path d="M65.4375 191H55.7812V164.562C55.7812 163.833 55.7917 162.938 55.8125 161.875C55.8333 160.792 55.8646 159.688 55.9062 158.562C55.9479 157.417 55.9896 156.385 56.0312 155.469C55.8021 155.74 55.3333 156.208 54.625 156.875C53.9375 157.521 53.2917 158.104 52.6875 158.625L47.4375 162.844L42.7812 157.031L57.5 145.312H65.4375V191Z" fill="white"/>
<circle cx="479.5" cy="472.5" r="52.5" fill="url(#paint7_linear_842_34)" stroke="white" stroke-width="10"/>
<path d="M495.5 497H463.562V490.281L475.031 478.688C477.344 476.312 479.198 474.333 480.594 472.75C482.01 471.146 483.031 469.688 483.656 468.375C484.302 467.062 484.625 465.656 484.625 464.156C484.625 462.344 484.115 460.99 483.094 460.094C482.094 459.177 480.75 458.719 479.062 458.719C477.292 458.719 475.573 459.125 473.906 459.938C472.24 460.75 470.5 461.906 468.688 463.406L463.438 457.188C464.75 456.062 466.135 455 467.594 454C469.073 453 470.781 452.198 472.719 451.594C474.677 450.969 477.021 450.656 479.75 450.656C482.75 450.656 485.323 451.198 487.469 452.281C489.635 453.365 491.302 454.844 492.469 456.719C493.635 458.573 494.219 460.677 494.219 463.031C494.219 465.552 493.719 467.854 492.719 469.938C491.719 472.021 490.26 474.083 488.344 476.125C486.448 478.167 484.156 480.427 481.469 482.906L475.594 488.438V488.875H495.5V497Z" fill="white"/>
<circle cx="76.5" cy="778.5" r="52.5" fill="url(#paint8_linear_842_34)" stroke="white" stroke-width="10"/>
<path d="M90.7188 767.531C90.7188 769.635 90.2812 771.458 89.4062 773C88.5312 774.542 87.3438 775.802 85.8438 776.781C84.3646 777.76 82.6979 778.479 80.8438 778.938V779.125C84.5104 779.583 87.2917 780.708 89.1875 782.5C91.1042 784.292 92.0625 786.688 92.0625 789.688C92.0625 792.354 91.4062 794.74 90.0938 796.844C88.8021 798.948 86.8021 800.604 84.0938 801.812C81.3854 803.021 77.8958 803.625 73.625 803.625C71.1042 803.625 68.75 803.417 66.5625 803C64.3958 802.604 62.3542 801.99 60.4375 801.156V792.938C62.3958 793.938 64.4479 794.698 66.5938 795.219C68.7396 795.719 70.7396 795.969 72.5938 795.969C76.0521 795.969 78.4688 795.375 79.8438 794.188C81.2396 792.979 81.9375 791.292 81.9375 789.125C81.9375 787.854 81.6146 786.781 80.9688 785.906C80.3229 785.031 79.1979 784.365 77.5938 783.906C76.0104 783.448 73.7917 783.219 70.9375 783.219H67.4688V775.812H71C73.8125 775.812 75.9479 775.552 77.4062 775.031C78.8854 774.49 79.8854 773.76 80.4062 772.844C80.9479 771.906 81.2188 770.844 81.2188 769.656C81.2188 768.031 80.7188 766.76 79.7188 765.844C78.7188 764.927 77.0521 764.469 74.7188 764.469C73.2604 764.469 71.9271 764.656 70.7188 765.031C69.5312 765.385 68.4583 765.823 67.5 766.344C66.5417 766.844 65.6979 767.333 64.9688 767.812L60.5 761.156C62.2917 759.865 64.3854 758.792 66.7812 757.938C69.1979 757.083 72.0729 756.656 75.4062 756.656C80.1146 756.656 83.8438 757.604 86.5938 759.5C89.3438 761.396 90.7188 764.073 90.7188 767.531Z" fill="white"/>
<circle cx="479.5" cy="1085.5" r="52.5" fill="url(#paint9_linear_842_34)" stroke="white" stroke-width="10"/>
<path d="M496.531 1100.53H491.031V1110H481.594V1100.53H462.094V1093.81L482.125 1064.31H491.031V1093.03H496.531V1100.53ZM481.594 1093.03V1085.28C481.594 1084.55 481.604 1083.69 481.625 1082.69C481.667 1081.69 481.708 1080.69 481.75 1079.69C481.792 1078.69 481.833 1077.8 481.875 1077.03C481.938 1076.24 481.979 1075.69 482 1075.38H481.75C481.354 1076.23 480.938 1077.06 480.5 1077.88C480.062 1078.67 479.552 1079.5 478.969 1080.38L470.594 1093.03H481.594Z" fill="white"/>
<circle cx="64.5" cy="1390.5" r="52.5" fill="url(#paint10_linear_842_34)" stroke="white" stroke-width="10"/>
<path d="M65.1875 1385.81C67.9792 1385.81 70.4583 1386.34 72.625 1387.41C74.8125 1388.47 76.5312 1390.03 77.7812 1392.09C79.0312 1394.16 79.6562 1396.7 79.6562 1399.72C79.6562 1403.01 78.9688 1405.85 77.5938 1408.25C76.2396 1410.62 74.2083 1412.45 71.5 1413.72C68.8125 1414.99 65.4583 1415.62 61.4375 1415.62C59.0417 1415.62 56.7812 1415.42 54.6562 1415C52.5521 1414.6 50.7083 1413.99 49.125 1413.16V1404.81C50.7083 1405.65 52.6042 1406.35 54.8125 1406.94C57.0417 1407.5 59.1354 1407.78 61.0938 1407.78C63.0104 1407.78 64.625 1407.53 65.9375 1407.03C67.25 1406.51 68.2396 1405.72 68.9062 1404.66C69.5938 1403.57 69.9375 1402.2 69.9375 1400.53C69.9375 1398.3 69.1875 1396.59 67.6875 1395.41C66.1875 1394.22 63.8854 1393.62 60.7812 1393.62C59.5938 1393.62 58.3542 1393.74 57.0625 1393.97C55.7917 1394.2 54.7292 1394.43 53.875 1394.66L50.0312 1392.59L51.75 1369.31H76.5312V1377.5H60.2188L59.375 1386.47C60.0833 1386.32 60.8542 1386.18 61.6875 1386.03C62.5208 1385.89 63.6875 1385.81 65.1875 1385.81Z" fill="white"/>
<circle cx="479.5" cy="1696.5" r="52.5" fill="url(#paint11_linear_842_34)" stroke="white" stroke-width="10"/>
<path d="M463.25 1701.59C463.25 1698.97 463.438 1696.38 463.812 1693.81C464.208 1691.23 464.885 1688.8 465.844 1686.53C466.802 1684.24 468.146 1682.22 469.875 1680.47C471.604 1678.7 473.802 1677.31 476.469 1676.31C479.135 1675.29 482.365 1674.78 486.156 1674.78C487.052 1674.78 488.094 1674.82 489.281 1674.91C490.49 1674.97 491.49 1675.08 492.281 1675.25V1682.97C491.448 1682.78 490.552 1682.64 489.594 1682.53C488.656 1682.41 487.719 1682.34 486.781 1682.34C482.99 1682.34 480.052 1682.95 477.969 1684.16C475.906 1685.36 474.448 1687.04 473.594 1689.19C472.76 1691.31 472.271 1693.79 472.125 1696.62H472.531C473.115 1695.6 473.844 1694.7 474.719 1693.91C475.615 1693.11 476.698 1692.49 477.969 1692.03C479.24 1691.55 480.729 1691.31 482.438 1691.31C485.104 1691.31 487.417 1691.89 489.375 1693.03C491.333 1694.16 492.844 1695.79 493.906 1697.94C494.969 1700.08 495.5 1702.7 495.5 1705.78C495.5 1709.07 494.865 1711.91 493.594 1714.28C492.323 1716.66 490.521 1718.48 488.188 1719.75C485.875 1721 483.125 1721.62 479.938 1721.62C477.604 1721.62 475.427 1721.23 473.406 1720.44C471.385 1719.62 469.615 1718.4 468.094 1716.75C466.573 1715.1 465.385 1713.03 464.531 1710.53C463.677 1708.01 463.25 1705.03 463.25 1701.59ZM479.75 1713.91C481.646 1713.91 483.188 1713.26 484.375 1711.97C485.562 1710.68 486.156 1708.66 486.156 1705.91C486.156 1703.68 485.635 1701.93 484.594 1700.66C483.573 1699.36 482.021 1698.72 479.938 1698.72C478.521 1698.72 477.271 1699.04 476.188 1699.69C475.125 1700.31 474.302 1701.11 473.719 1702.09C473.135 1703.05 472.844 1704.04 472.844 1705.06C472.844 1706.12 472.99 1707.18 473.281 1708.22C473.573 1709.26 474.01 1710.21 474.594 1711.06C475.177 1711.92 475.896 1712.6 476.75 1713.12C477.625 1713.65 478.625 1713.91 479.75 1713.91Z" fill="white"/>
<defs>
<linearGradient id="paint0_linear_842_34" x1="158.528" y1="13" x2="158.528" y2="329.503" gradientUnits="userSpaceOnUse">
<stop stop-color="#F7D557"/>
<stop offset="1" stop-color="#EE9F4D"/>
</linearGradient>
<linearGradient id="paint1_linear_842_34" x1="377.531" y1="319" x2="377.531" y2="635.503" gradientUnits="userSpaceOnUse">
<stop stop-color="#EEA667"/>
<stop offset="1" stop-color="#CA7B31"/>
</linearGradient>
<linearGradient id="paint2_linear_842_34" x1="164.992" y1="625" x2="164.992" y2="941.503" gradientUnits="userSpaceOnUse">
<stop stop-color="#E08395"/>
<stop offset="1" stop-color="#DD4B6B"/>
</linearGradient>
<linearGradient id="paint3_linear_842_34" x1="383.531" y1="931" x2="383.531" y2="1247.5" gradientUnits="userSpaceOnUse">
<stop stop-color="#A2A4D8"/>
<stop offset="1" stop-color="#5143A6"/>
</linearGradient>
<linearGradient id="paint4_linear_842_34" x1="164.992" y1="1237" x2="164.992" y2="1553.5" gradientUnits="userSpaceOnUse">
<stop stop-color="#619BC8"/>
<stop offset="1" stop-color="#3B7DBC"/>
</linearGradient>
<linearGradient id="paint5_linear_842_34" x1="381.531" y1="1543" x2="381.531" y2="1859.5" gradientUnits="userSpaceOnUse">
<stop stop-color="#96CAC4"/>
<stop offset="1" stop-color="#5F9BC8"/>
</linearGradient>
<linearGradient id="paint6_linear_842_34" x1="57.5" y1="109" x2="57.5" y2="224" gradientUnits="userSpaceOnUse">
<stop stop-color="#F7D557"/>
<stop offset="1" stop-color="#EE9F4D"/>
</linearGradient>
<linearGradient id="paint7_linear_842_34" x1="479.5" y1="415" x2="479.5" y2="530" gradientUnits="userSpaceOnUse">
<stop stop-color="#EEA667"/>
<stop offset="1" stop-color="#CC7D33"/>
</linearGradient>
<linearGradient id="paint8_linear_842_34" x1="76.5" y1="721" x2="76.5" y2="836" gradientUnits="userSpaceOnUse">
<stop stop-color="#E18094"/>
<stop offset="1" stop-color="#DD4B6B"/>
</linearGradient>
<linearGradient id="paint9_linear_842_34" x1="479.5" y1="1028" x2="479.5" y2="1143" gradientUnits="userSpaceOnUse">
<stop stop-color="#A2A4D8"/>
<stop offset="1" stop-color="#5547A8"/>
</linearGradient>
<linearGradient id="paint10_linear_842_34" x1="64.5" y1="1333" x2="64.5" y2="1448" gradientUnits="userSpaceOnUse">
<stop stop-color="#629BC8"/>
<stop offset="1" stop-color="#3D7FBD"/>
</linearGradient>
<linearGradient id="paint11_linear_842_34" x1="479.5" y1="1639" x2="479.5" y2="1754" gradientUnits="userSpaceOnUse">
<stop stop-color="#96CAC4"/>
<stop offset="1" stop-color="#629EC8"/>
</linearGradient>
</defs>
</svg>
