<svg width="274" height="332" viewBox="0 0 274 332" fill="none" xmlns="http://www.w3.org/2000/svg">
<path d="M13.0004 13C291.5 13.0013 290.559 319 13.0024 319" stroke="url(#paint0_linear_843_90)" stroke-width="25" stroke-linecap="round"/>
<circle cx="216.5" cy="167.5" r="52.5" fill="url(#paint1_linear_843_90)" stroke="white" stroke-width="10"/>
<path d="M233.531 182.531H228.031V192H218.594V182.531H199.094V175.812L219.125 146.312H228.031V175.031H233.531V182.531ZM218.594 175.031V167.281C218.594 166.552 218.604 165.688 218.625 164.688C218.667 163.688 218.708 162.688 218.75 161.688C218.792 160.688 218.833 159.802 218.875 159.031C218.938 158.24 218.979 157.688 219 157.375H218.75C218.354 158.229 217.938 159.062 217.5 159.875C217.062 160.667 216.552 161.5 215.969 162.375L207.594 175.031H218.594Z" fill="white"/>
<defs>
<linearGradient id="paint0_linear_843_90" x1="120.531" y1="13" x2="120.531" y2="329.503" gradientUnits="userSpaceOnUse">
<stop stop-color="#A2A4D8"/>
<stop offset="1" stop-color="#5143A6"/>
</linearGradient>
<linearGradient id="paint1_linear_843_90" x1="216.5" y1="110" x2="216.5" y2="225" gradientUnits="userSpaceOnUse">
<stop stop-color="#A2A4D8"/>
<stop offset="1" stop-color="#5547A8"/>
</linearGradient>
</defs>
</svg>
