<svg width="276" height="332" viewBox="0 0 276 332" fill="none" xmlns="http://www.w3.org/2000/svg">
<path d="M13.0004 13C291.5 13.0013 290.559 319 13.0024 319" stroke="url(#paint0_linear_843_92)" stroke-width="25" stroke-linecap="round"/>
<circle cx="218.5" cy="166.5" r="52.5" fill="url(#paint1_linear_843_92)" stroke="white" stroke-width="10"/>
<path d="M202.25 171.594C202.25 168.969 202.438 166.375 202.812 163.812C203.208 161.229 203.885 158.802 204.844 156.531C205.802 154.24 207.146 152.219 208.875 150.469C210.604 148.698 212.802 147.312 215.469 146.312C218.135 145.292 221.365 144.781 225.156 144.781C226.052 144.781 227.094 144.823 228.281 144.906C229.49 144.969 230.49 145.083 231.281 145.25V152.969C230.448 152.781 229.552 152.635 228.594 152.531C227.656 152.406 226.719 152.344 225.781 152.344C221.99 152.344 219.052 152.948 216.969 154.156C214.906 155.365 213.448 157.042 212.594 159.188C211.76 161.312 211.271 163.792 211.125 166.625H211.531C212.115 165.604 212.844 164.698 213.719 163.906C214.615 163.115 215.698 162.49 216.969 162.031C218.24 161.552 219.729 161.312 221.438 161.312C224.104 161.312 226.417 161.885 228.375 163.031C230.333 164.156 231.844 165.792 232.906 167.938C233.969 170.083 234.5 172.698 234.5 175.781C234.5 179.073 233.865 181.906 232.594 184.281C231.323 186.656 229.521 188.479 227.188 189.75C224.875 191 222.125 191.625 218.938 191.625C216.604 191.625 214.427 191.229 212.406 190.438C210.385 189.625 208.615 188.396 207.094 186.75C205.573 185.104 204.385 183.031 203.531 180.531C202.677 178.01 202.25 175.031 202.25 171.594ZM218.75 183.906C220.646 183.906 222.188 183.26 223.375 181.969C224.562 180.677 225.156 178.656 225.156 175.906C225.156 173.677 224.635 171.927 223.594 170.656C222.573 169.365 221.021 168.719 218.938 168.719C217.521 168.719 216.271 169.042 215.188 169.688C214.125 170.312 213.302 171.115 212.719 172.094C212.135 173.052 211.844 174.042 211.844 175.062C211.844 176.125 211.99 177.177 212.281 178.219C212.573 179.26 213.01 180.208 213.594 181.062C214.177 181.917 214.896 182.604 215.75 183.125C216.625 183.646 217.625 183.906 218.75 183.906Z" fill="white"/>
<defs>
<linearGradient id="paint0_linear_843_92" x1="120.531" y1="13" x2="120.531" y2="329.503" gradientUnits="userSpaceOnUse">
<stop stop-color="#96CAC4"/>
<stop offset="1" stop-color="#5F9BC8"/>
</linearGradient>
<linearGradient id="paint1_linear_843_92" x1="218.5" y1="109" x2="218.5" y2="224" gradientUnits="userSpaceOnUse">
<stop stop-color="#96CAC4"/>
<stop offset="1" stop-color="#629EC8"/>
</linearGradient>
</defs>
</svg>
