<svg width="279" height="332" viewBox="0 0 279 332" fill="none" xmlns="http://www.w3.org/2000/svg">
<path d="M265.522 13C-12.978 13.0013 -12.0361 319 265.52 319" stroke="url(#paint0_linear_843_91)" stroke-width="25" stroke-linecap="round"/>
<circle cx="57.5" cy="166.5" r="52.5" fill="url(#paint1_linear_843_91)" stroke="white" stroke-width="10"/>
<path d="M58.1875 161.812C60.9792 161.812 63.4583 162.344 65.625 163.406C67.8125 164.469 69.5312 166.031 70.7812 168.094C72.0312 170.156 72.6562 172.698 72.6562 175.719C72.6562 179.01 71.9688 181.854 70.5938 184.25C69.2396 186.625 67.2083 188.448 64.5 189.719C61.8125 190.99 58.4583 191.625 54.4375 191.625C52.0417 191.625 49.7812 191.417 47.6562 191C45.5521 190.604 43.7083 189.99 42.125 189.156V180.812C43.7083 181.646 45.6042 182.354 47.8125 182.938C50.0417 183.5 52.1354 183.781 54.0938 183.781C56.0104 183.781 57.625 183.531 58.9375 183.031C60.25 182.51 61.2396 181.719 61.9062 180.656C62.5938 179.573 62.9375 178.198 62.9375 176.531C62.9375 174.302 62.1875 172.594 60.6875 171.406C59.1875 170.219 56.8854 169.625 53.7812 169.625C52.5938 169.625 51.3542 169.74 50.0625 169.969C48.7917 170.198 47.7292 170.427 46.875 170.656L43.0312 168.594L44.75 145.312H69.5312V153.5H53.2188L52.375 162.469C53.0833 162.323 53.8542 162.177 54.6875 162.031C55.5208 161.885 56.6875 161.812 58.1875 161.812Z" fill="white"/>
<defs>
<linearGradient id="paint0_linear_843_91" x1="157.992" y1="13" x2="157.992" y2="329.503" gradientUnits="userSpaceOnUse">
<stop stop-color="#619BC8"/>
<stop offset="1" stop-color="#3B7DBC"/>
</linearGradient>
<linearGradient id="paint1_linear_843_91" x1="57.5" y1="109" x2="57.5" y2="224" gradientUnits="userSpaceOnUse">
<stop stop-color="#629BC8"/>
<stop offset="1" stop-color="#3D7FBD"/>
</linearGradient>
</defs>
</svg>
