<svg width="267" height="332" viewBox="0 0 267 332" fill="none" xmlns="http://www.w3.org/2000/svg">
<path d="M253.522 13C-24.978 13.0013 -24.0361 319 253.52 319" stroke="url(#paint0_linear_843_89)" stroke-width="25" stroke-linecap="round"/>
<circle cx="57.5" cy="166.5" r="52.5" fill="url(#paint1_linear_843_89)" stroke="white" stroke-width="10"/>
<path d="M71.7188 155.531C71.7188 157.635 71.2812 159.458 70.4062 161C69.5312 162.542 68.3438 163.802 66.8438 164.781C65.3646 165.76 63.6979 166.479 61.8438 166.938V167.125C65.5104 167.583 68.2917 168.708 70.1875 170.5C72.1042 172.292 73.0625 174.688 73.0625 177.688C73.0625 180.354 72.4062 182.74 71.0938 184.844C69.8021 186.948 67.8021 188.604 65.0938 189.812C62.3854 191.021 58.8958 191.625 54.625 191.625C52.1042 191.625 49.75 191.417 47.5625 191C45.3958 190.604 43.3542 189.99 41.4375 189.156V180.938C43.3958 181.938 45.4479 182.698 47.5938 183.219C49.7396 183.719 51.7396 183.969 53.5938 183.969C57.0521 183.969 59.4688 183.375 60.8438 182.188C62.2396 180.979 62.9375 179.292 62.9375 177.125C62.9375 175.854 62.6146 174.781 61.9688 173.906C61.3229 173.031 60.1979 172.365 58.5938 171.906C57.0104 171.448 54.7917 171.219 51.9375 171.219H48.4688V163.812H52C54.8125 163.812 56.9479 163.552 58.4062 163.031C59.8854 162.49 60.8854 161.76 61.4062 160.844C61.9479 159.906 62.2188 158.844 62.2188 157.656C62.2188 156.031 61.7188 154.76 60.7188 153.844C59.7188 152.927 58.0521 152.469 55.7188 152.469C54.2604 152.469 52.9271 152.656 51.7188 153.031C50.5312 153.385 49.4583 153.823 48.5 154.344C47.5417 154.844 46.6979 155.333 45.9688 155.812L41.5 149.156C43.2917 147.865 45.3854 146.792 47.7812 145.938C50.1979 145.083 53.0729 144.656 56.4062 144.656C61.1146 144.656 64.8438 145.604 67.5938 147.5C70.3438 149.396 71.7188 152.073 71.7188 155.531Z" fill="white"/>
<defs>
<linearGradient id="paint0_linear_843_89" x1="145.992" y1="13" x2="145.992" y2="329.503" gradientUnits="userSpaceOnUse">
<stop stop-color="#E08395"/>
<stop offset="1" stop-color="#DD4B6B"/>
</linearGradient>
<linearGradient id="paint1_linear_843_89" x1="57.5" y1="109" x2="57.5" y2="224" gradientUnits="userSpaceOnUse">
<stop stop-color="#E18094"/>
<stop offset="1" stop-color="#DD4B6B"/>
</linearGradient>
</defs>
</svg>
