<svg width="280" height="332" viewBox="0 0 280 332" fill="none" xmlns="http://www.w3.org/2000/svg">
<path d="M13.0004 13C291.5 13.0013 290.559 319 13.0024 319" stroke="url(#paint0_linear_843_88)" stroke-width="25" stroke-linecap="round"/>
<circle cx="222.502" cy="166.5" r="52.5" fill="url(#paint1_linear_843_88)" stroke="white" stroke-width="10"/>
<path d="M238.502 191H206.564V184.281L218.033 172.688C220.346 170.312 222.2 168.333 223.596 166.75C225.012 165.146 226.033 163.688 226.658 162.375C227.304 161.062 227.627 159.656 227.627 158.156C227.627 156.344 227.117 154.99 226.096 154.094C225.096 153.177 223.752 152.719 222.064 152.719C220.294 152.719 218.575 153.125 216.908 153.938C215.242 154.75 213.502 155.906 211.689 157.406L206.439 151.188C207.752 150.062 209.137 149 210.596 148C212.075 147 213.783 146.198 215.721 145.594C217.679 144.969 220.023 144.656 222.752 144.656C225.752 144.656 228.325 145.198 230.471 146.281C232.637 147.365 234.304 148.844 235.471 150.719C236.637 152.573 237.221 154.677 237.221 157.031C237.221 159.552 236.721 161.854 235.721 163.938C234.721 166.021 233.262 168.083 231.346 170.125C229.45 172.167 227.158 174.427 224.471 176.906L218.596 182.438V182.875H238.502V191Z" fill="white"/>
<defs>
<linearGradient id="paint0_linear_843_88" x1="120.531" y1="13" x2="120.531" y2="329.503" gradientUnits="userSpaceOnUse">
<stop stop-color="#EEA667"/>
<stop offset="1" stop-color="#CA7B31"/>
</linearGradient>
<linearGradient id="paint1_linear_843_88" x1="222.502" y1="109" x2="222.502" y2="224" gradientUnits="userSpaceOnUse">
<stop stop-color="#EEA667"/>
<stop offset="1" stop-color="#CC7D33"/>
</linearGradient>
</defs>
</svg>
